<svg xmlns="http://www.w3.org/2000/svg" width="173.039" height="60" viewBox="0 0 173.039 60">
  <g id="Group_269" data-name="Group 269" transform="translate(-121 -194.276)">
    <path id="Path_347" data-name="Path 347" d="M633.3,250h13.552q6.152,0,8.778,2.316c1.756,1.537,2.633,4.084,2.633,7.659v17.258h-7.208V260.859q0-3.052-.949-3.967c-.635-.6-1.9-.908-3.808-.908h-5.787v21.25H633.3V250Z" transform="translate(-364.223 -39.618)" fill="#fff" fill-rule="evenodd"/>
    <path id="Path_348" data-name="Path 348" d="M530.851,262.458a9.1,9.1,0,0,0,1.821,6.054,7.023,7.023,0,0,0,10.163,0,10.839,10.839,0,0,0,.014-12.1,7.052,7.052,0,0,0-10.163.018,9.051,9.051,0,0,0-1.836,6.026m21.393,0q0,6.412-3.9,10.234-3.913,3.82-10.535,3.821t-10.572-3.834a15.249,15.249,0,0,1,0-20.479q3.938-3.857,10.572-3.854,6.573,0,10.5,3.854a13.733,13.733,0,0,1,3.932,10.257" transform="translate(-286.011 -38.442)" fill="#fff" fill-rule="evenodd"/>
    <path id="Path_349" data-name="Path 349" d="M435.547,263.634,425.459,250h8.348l5.839,8.213L445.665,250h8.264l-10.09,13.809,9.937,13.423h-8.369l-5.76-7.891-5.791,7.891h-8.4l10.088-13.6Z" transform="translate(-216.457 -39.619)" fill="#fff" fill-rule="evenodd"/>
    <path id="Path_350" data-name="Path 350" d="M393.582,250v22.721c.028,1.542,1.108,4.325,5.433,4.512h2.124V250Z" transform="translate(-193.794 -39.618)" fill="#fff" fill-rule="evenodd"/>
    <path id="Path_351" data-name="Path 351" d="M175.318,246.311a17.6,17.6,0,0,1-2.141,2.191l-.118-.116-4.233-3.843c1.034-.934,1.933-1.877,2.552-2.533l3.492,3.844.238.238.21.219Zm-12.133,5.746h-.91a16.772,16.772,0,0,1-5.825-1.182,23.811,23.811,0,0,1-3.14-1.844v-.008l-1.372-.954c-3.864-2.707-8.555-6.437-10.554-8.034.924-.884,2.362-2.224,3.461-3.277l.234-.179.031-.054a10.115,10.115,0,0,1,1.034-.859,8.664,8.664,0,0,1,4.742-1.581l.228-.009a8.943,8.943,0,0,1,5.492,2.082,4.69,4.69,0,0,1,.428.382l.158.14c2.816,2.717,5.553,5.284,8.3,7.816l0,.009,2.054,1.858,3.781,3.434a17.75,17.75,0,0,1-8.133,2.261Zm-16.161-1.848a17.831,17.831,0,0,1-7.616,1.772,17.627,17.627,0,0,1-8.542-2.244c1.165-1.048,2.627-2.384,3.641-3.317l.946-.869.28-.234c1.174-1.079,2.5-2.3,4-3.743,1.653,1.337,5.789,4.628,9.562,7.35-.806.486-1.573.924-2.268,1.286Zm-20.287-3.878c.269-.269.513-.534.747-.781l.228-.247.961-1.064,2.079-2.3c1.006,1.089,1.926,1.963,2.582,2.568-1.135,1.028-3.064,2.791-4.374,3.972a13.959,13.959,0,0,1-2.223-2.144Zm-1.87-17.769c.359-.713.776-1.469,1.229-2.225a80.034,80.034,0,0,0,7.491,9.281c-1.388,1.476-2.586,2.766-3.65,3.908l-3.268,3.644-.586.651c-.1.1-.215.229-.319.344a2.377,2.377,0,0,0-.268.277,17.363,17.363,0,0,1-.628-15.881Zm.569-24.471,3.3,3.606,1.129,1.237c.124.159.277.3.408.461l.442.477c2.6,2.821,5.247,5.632,8.039,8.515a8.75,8.75,0,0,1-.163,11.9l-1.056,1.106.016.015c-.852.893-1.662,1.767-2.453,2.6a75.62,75.62,0,0,1-8.119-10.358l-.428-.667-.14-.247c-.536-.865-1.009-1.7-1.4-2.451a17.3,17.3,0,0,1,.429-16.2Zm13.4-7.607h.915a17.111,17.111,0,0,1,5.846,1.173,33.462,33.462,0,0,1,4.5,2.785c3.88,2.716,8.565,6.431,10.576,8.039l-3.581,3.373-.03.034c-.537.516-1.025.874-1.165.994a8.685,8.685,0,0,1-4.755,1.568l-.218.009a9.261,9.261,0,0,1-5.582-2.129c-3.014-2.9-5.909-5.631-8.805-8.283l.01-.014-.731-.661-.2-.184-.815-.746c-.319-.277-.667-.61-1.035-.943l-3.02-2.776a17.811,17.811,0,0,1,8.1-2.24ZM155.03,198.3a17.781,17.781,0,0,1,7.623-1.767,17.543,17.543,0,0,1,8.531,2.245c-1.1.992-2.472,2.259-3.5,3.168l-.657.626c-.21.179-.378.338-.509.447a.944.944,0,0,1-.2.177l-.941.85.009,0c-.841.776-1.746,1.614-2.74,2.544l-.354.357c-1.671-1.341-5.8-4.623-9.567-7.34l.154-.1c.752-.466,1.487-.868,2.143-1.212Zm20.192,3.969c-.183.194-.363.391-.532.565-.115.124-.239.259-.359.377l-.258.3-2.771,3.069c-1-1.1-1.931-1.985-2.581-2.578l.468-.432c1-.923,2.407-2.2,3.521-3.193.119-.124.259-.232.379-.343a12.852,12.852,0,0,1,2.208,2.146l-.075.085Zm1.959,17.673c-.372.736-.789,1.474-1.247,2.244a78.982,78.982,0,0,0-7.491-9.265c1.054-1.125,2-2.136,2.845-3.06l.014.009.929-1.032.508-.557-.01-.008.085-.075h0l.026-.031v0l3.138-3.461c.194-.207.384-.417.572-.616a17.309,17.309,0,0,1,.631,15.851Zm-48.086-15.115-1.97-2.186-.128-.129c-.09-.1-.189-.2-.289-.3a16.063,16.063,0,0,1,2.148-2.175l3.413,3.09c.194.184.4.362.587.534.12.116.24.22.349.318-1.029.944-1.945,1.888-2.547,2.553l-1.561-1.707Zm38.094,38.225c-2.845-2.617-5.677-5.272-8.586-8.09l-.139-.114c-.15-.129-.3-.262-.447-.4a11.3,11.3,0,0,0-6.906-2.575l-.279.008a11.01,11.01,0,0,0-5.89,1.923,10.9,10.9,0,0,0-1.482,1.252l-.149.138c-1.7,1.591-3.905,3.694-4.309,4.042l-.028.04-.937.874c-1.134,1.063-2.139,2.011-3.069,2.859-.642-.575-1.656-1.529-2.731-2.71.876-.955,1.855-2,2.941-3.145h.013l.8-.859v-.009l.031-.031.343-.347-.012-.009c1.021-1.1,2.095-2.246,3.209-3.418l.487-.5v-.021l.179-.175a10.988,10.988,0,0,0,.17-14.891c-2.894-2.98-5.592-5.841-8.237-8.716.6-.66,1.578-1.7,2.68-2.7,2.956,2.717,5.9,5.473,9.044,8.491a11.36,11.36,0,0,0,7.04,2.692h.287a11.2,11.2,0,0,0,6.04-2.046c.148-.12.577-.458,1.2-1.032l3.949-3.71.438-.451h.049l.826-.75-.009-.019c1.258-1.192,2.373-2.235,3.393-3.154.621.587,1.641,1.539,2.716,2.713-1.1,1.19-2.323,2.521-3.791,4.033l-.328.36h.009c-1.024,1.1-2.118,2.25-3.262,3.473l-.636.673a10.96,10.96,0,0,0-.166,14.883c2.885,2.981,5.522,5.776,8.239,8.725-.6.656-1.566,1.688-2.691,2.692Zm9.422,1.34-5.277-5.724h-.016c-2.656-2.886-5.237-5.628-8.038-8.517a8.784,8.784,0,0,1,.164-11.922l.588-.61.014-.019h.014c.98-1.063,1.937-2.076,2.875-3.064a74.9,74.9,0,0,1,8.119,10.324l.363.566.175.3c.552.9,1.038,1.75,1.442,2.529a17.293,17.293,0,0,1-.423,16.138Zm1.571,1.709a19.4,19.4,0,0,0,.827-18.839c-.438-.85-.945-1.738-1.571-2.766l-.131-.2.01-.108v-.01c.692-1.117,1.329-2.2,1.855-3.267a19.579,19.579,0,0,0-1.029-18.463c-.08-.148-.181-.3-.28-.447l-.134-.216-.06-.051-.035-.03a13.187,13.187,0,0,0-3.959-3.952l-.049-.04-.21-.14a19.469,19.469,0,0,0-19.349-1.235c-.758.37-1.513.815-2.3,1.29-.314.175-.622.369-.99.6a32.193,32.193,0,0,0-4.313-2.588,19.189,19.189,0,0,0-6.69-1.361H138.8a20.079,20.079,0,0,0-9.845,2.955c-.194.128-.388.252-.588.4l-.058.039-.01.02a17.7,17.7,0,0,0-3.149,2.942l-.019.034a11.966,11.966,0,0,0-.768,1.008l-.008.005-.03.044a19.615,19.615,0,0,0-1.308,19.545c.407.78.869,1.594,1.392,2.452l.129.219.21.334.009.035c-.712,1.122-1.333,2.244-1.875,3.3a19.629,19.629,0,0,0,1.089,18.586l.268.342.124.225a13.007,13.007,0,0,0,4.076,4.047l.068.04v.019a19.768,19.768,0,0,0,10.9,3.316,20.125,20.125,0,0,0,8.61-1.99c.776-.413,1.624-.889,2.5-1.426l.732-.448a31.7,31.7,0,0,0,4.328,2.594,19.954,19.954,0,0,0,6.665,1.37h.981a19.974,19.974,0,0,0,9.734-2.9l.01.021.766-.537c.044-.025.437-.319,1.016-.805a19.15,19.15,0,0,0,2.129-2.144v.008l.328-.435.089-.121.373-.475c.035-.06.229-.319.5-.765l.009-.021Z" transform="translate(0)" fill="#fff" fill-rule="evenodd"/>
  </g>
</svg>
